<svg id="Isolation_Mode" data-name="Isolation Mode" xmlns="http://www.w3.org/2000/svg" viewBox="0 0 274.87 35.92"><defs><style>.cls-1{fill:#2c4251;}</style></defs><path class="cls-1" d="M18.35,43.76a12.7,12.7,0,0,1-5.13-4.71,12.9,12.9,0,0,1-1.84-6.85,12.62,12.62,0,0,1,7-11.57,15.85,15.85,0,0,1,7.4-1.7,14.38,14.38,0,0,1,7.11,1.7,10.06,10.06,0,0,1,4.43,4.86L31.5,28.6a6.35,6.35,0,0,0-5.8-3.54A6.56,6.56,0,0,0,20.86,27,7,7,0,0,0,19,32.2a7,7,0,0,0,1.91,5.22,6.59,6.59,0,0,0,4.84,1.91,6.28,6.28,0,0,0,5.8-3.54L37.29,39a10.31,10.31,0,0,1-4.43,4.79,14.18,14.18,0,0,1-7.11,1.72A15.73,15.73,0,0,1,18.35,43.76Z" transform="translate(-11.38 -9.54)"/><path class="cls-1" d="M46.22,43.76a12.61,12.61,0,0,1-5-4.71,13.07,13.07,0,0,1-1.82-6.85,13,13,0,0,1,1.82-6.85,12.64,12.64,0,0,1,5-4.72,16.5,16.5,0,0,1,14.59,0,12.71,12.71,0,0,1,5,4.72,13,13,0,0,1,1.82,6.85,13.07,13.07,0,0,1-1.82,6.85,12.69,12.69,0,0,1-5,4.71,15.25,15.25,0,0,1-7.28,1.7A15.4,15.4,0,0,1,46.22,43.76Zm12-6.37a7.21,7.21,0,0,0,1.85-5.19A7.22,7.22,0,0,0,58.24,27a6.21,6.21,0,0,0-4.71-1.94A6.29,6.29,0,0,0,48.79,27a7.15,7.15,0,0,0-1.87,5.2,7.14,7.14,0,0,0,1.87,5.19,6.26,6.26,0,0,0,4.74,1.94A6.18,6.18,0,0,0,58.24,37.39Z" transform="translate(-11.38 -9.54)"/><path class="cls-1" d="M98.88,9.54V45.08H91.75v-3c-1.85,2.24-4.54,3.35-8,3.35a13.29,13.29,0,0,1-6.58-1.63,11.62,11.62,0,0,1-4.63-4.64,14.23,14.23,0,0,1-1.67-7,14.27,14.27,0,0,1,1.67-7,11.62,11.62,0,0,1,4.63-4.64,13.29,13.29,0,0,1,6.58-1.63A9.81,9.81,0,0,1,91.41,22V9.54ZM89.69,37.39a7.18,7.18,0,0,0,1.87-5.19A7.19,7.19,0,0,0,89.69,27a6.71,6.71,0,0,0-9.44,0,7.18,7.18,0,0,0-1.86,5.2,7.17,7.17,0,0,0,1.86,5.19,6.71,6.71,0,0,0,9.44,0Z" transform="translate(-11.38 -9.54)"/><path class="cls-1" d="M130.88,34.3h-19.5a6.13,6.13,0,0,0,2.5,3.79,8.25,8.25,0,0,0,4.88,1.39,9.9,9.9,0,0,0,3.57-.6,8.73,8.73,0,0,0,2.9-1.89l4,4.31q-3.63,4.16-10.63,4.16a16.71,16.71,0,0,1-7.71-1.7,12.38,12.38,0,0,1-5.17-4.71,13,13,0,0,1-1.82-6.85,13.14,13.14,0,0,1,1.79-6.83,12.56,12.56,0,0,1,4.93-4.74,14.55,14.55,0,0,1,7-1.7,14.32,14.32,0,0,1,6.85,1.63,11.82,11.82,0,0,1,4.81,4.67A13.87,13.87,0,0,1,131,32.29C131,32.39,131,33.06,130.88,34.3ZM113.4,26a6.08,6.08,0,0,0-2.11,3.92H124a6.18,6.18,0,0,0-2.11-3.9,6.31,6.31,0,0,0-4.21-1.46A6.42,6.42,0,0,0,113.4,26Z" transform="translate(-11.38 -9.54)"/><path class="cls-1" d="M146.76,19.89a13.35,13.35,0,0,1,5.24-1v6.9c-.83-.07-1.39-.1-1.68-.1a6.81,6.81,0,0,0-5,1.8c-1.22,1.19-1.82,3-1.82,5.38V45.08H136V19.31h7.14v3.4A8.31,8.31,0,0,1,146.76,19.89Z" transform="translate(-11.38 -9.54)"/><path class="cls-1" d="M158.83,44.43a12.76,12.76,0,0,1-4.39-2.22L156,39.52a12.87,12.87,0,0,0,4,2,15.73,15.73,0,0,0,5,.79,9.49,9.49,0,0,0,5.1-1.08,3.42,3.42,0,0,0,1.66-3,2.77,2.77,0,0,0-.91-2.18,6.2,6.2,0,0,0-2.3-1.2,34.61,34.61,0,0,0-3.69-.79,41.4,41.4,0,0,1-4.93-1.17,7.25,7.25,0,0,1-3.19-2,5.63,5.63,0,0,1-1.32-4A6.22,6.22,0,0,1,158,21.71c1.75-1.34,4.2-2,7.33-2a19.07,19.07,0,0,1,4.88.64,13.4,13.4,0,0,1,4,1.7l-1.48,2.73a12.77,12.77,0,0,0-7.42-2.15,8.56,8.56,0,0,0-4.91,1.15,3.5,3.5,0,0,0-1.66,3,3,3,0,0,0,.94,2.3A5.61,5.61,0,0,0,162,30.35a38.64,38.64,0,0,0,3.83.84,44,44,0,0,1,4.84,1.15,7.12,7.12,0,0,1,3.11,2,5.4,5.4,0,0,1,1.3,3.84,6.08,6.08,0,0,1-2.76,5.24q-2.75,1.93-7.64,1.94A19.3,19.3,0,0,1,158.83,44.43Z" transform="translate(-11.38 -9.54)"/><path class="cls-1" d="M185.1,43.67a12,12,0,0,1-4.6-4.58,13,13,0,0,1-1.68-6.61,13,13,0,0,1,1.68-6.61,12,12,0,0,1,4.6-4.55,14.09,14.09,0,0,1,13.12,0,11.76,11.76,0,0,1,4.57,4.55,13.11,13.11,0,0,1,1.66,6.61,13.08,13.08,0,0,1-1.66,6.61,11.83,11.83,0,0,1-4.57,4.58,13.87,13.87,0,0,1-13.12,0Zm11.37-2.59a8.51,8.51,0,0,0,3.33-3.47,10.73,10.73,0,0,0,1.2-5.13,10.72,10.72,0,0,0-1.2-5.12,8.51,8.51,0,0,0-3.33-3.47,10,10,0,0,0-9.62,0,8.64,8.64,0,0,0-3.36,3.47,10.61,10.61,0,0,0-1.22,5.12,10.63,10.63,0,0,0,1.22,5.13,8.64,8.64,0,0,0,3.36,3.47,10.09,10.09,0,0,0,9.62,0Z" transform="translate(-11.38 -9.54)"/><path class="cls-1" d="M234.09,19.89V45.08h-3.25v-4.6a9.45,9.45,0,0,1-3.69,3.57,11.06,11.06,0,0,1-5.36,1.27A10.77,10.77,0,0,1,214,42.57q-2.85-2.76-2.85-8.08V19.89h3.4V34.16q0,4,2,6a7.34,7.34,0,0,0,5.6,2.06,8.23,8.23,0,0,0,6.27-2.41,9.36,9.36,0,0,0,2.3-6.73V19.89Z" transform="translate(-11.38 -9.54)"/><path class="cls-1" d="M256.89,43.55a6.47,6.47,0,0,1-2.37,1.31,9.32,9.32,0,0,1-2.94.46,7.35,7.35,0,0,1-5.46-1.92A7.29,7.29,0,0,1,244.2,38V22.76h-4.5V19.89h4.5V14.38h3.4v5.51h7.66v2.87H247.6v15a4.75,4.75,0,0,0,1.13,3.42A4.23,4.23,0,0,0,252,42.4a6.15,6.15,0,0,0,2-.34,5,5,0,0,0,1.7-1Z" transform="translate(-11.38 -9.54)"/><path class="cls-1" d="M283.45,22.45q2.81,2.76,2.8,8V45.08h-3.4V30.81a8.35,8.35,0,0,0-2-6,7.4,7.4,0,0,0-5.61-2.06,8.62,8.62,0,0,0-6.44,2.42,9.13,9.13,0,0,0-2.37,6.68V45.08h-3.4V9.54h3.4V24.29a9.23,9.23,0,0,1,3.83-3.4,12.57,12.57,0,0,1,5.61-1.19A10.27,10.27,0,0,1,283.45,22.45Z" transform="translate(-11.38 -9.54)"/></svg>
