<svg xmlns="http://www.w3.org/2000/svg" xmlns:xlink="http://www.w3.org/1999/xlink" viewBox="0 0 1620.69 826.99"><defs><style>.cls-1,.cls-21,.cls-5{fill:#162126;}.cls-1{opacity:0.09;}.cls-2,.cls-8{opacity:0.4;}.cls-3{fill:url(#linear-gradient);}.cls-4{fill:#87bafb;}.cls-5{opacity:0.1;}.cls-12,.cls-6{fill:#9ebab7;}.cls-14,.cls-41,.cls-6,.cls-9{opacity:0.2;}.cls-7{fill:#f5c924;}.cls-8{fill:#f59b3d;}.cls-17,.cls-20,.cls-9{fill:#fff;}.cls-10{fill:#9fa1d1;}.cls-10,.cls-31{opacity:0.5;}.cls-11{fill:#ecf3f2;}.cls-13{fill:url(#linear-gradient-2);}.cls-14{fill:#6ab7cc;}.cls-15{fill:url(#linear-gradient-3);}.cls-16{fill:url(#linear-gradient-4);}.cls-17,.cls-19{opacity:0.25;}.cls-18{fill:url(#linear-gradient-5);}.cls-21{opacity:0.26;}.cls-22{fill:#64585c;}.cls-23{fill:#9ed2a7;}.cls-24{fill:#537d6f;}.cls-25{fill:#5b4c52;}.cls-26{fill:#756b6f;}.cls-27{fill:#2f3446;}.cls-28{fill:#bd6965;}.cls-29{fill:#1d2230;}.cls-30{fill:#bffac4;}.cls-32{fill:#4c3941;}.cls-33{fill:#423038;}.cls-34{opacity:0.15;}.cls-35{fill:#020202;}.cls-36{fill:#f7f2e1;}.cls-37{fill:#e6e2bd;}.cls-38{fill:#e7a56b;}.cls-39,.cls-40{fill:#c8935f;}.cls-39{opacity:0.7;}.cls-42{fill:#202020;}.cls-43{fill:#66706f;}.cls-44{fill:#98e2ca;}</style><linearGradient id="linear-gradient" x1="314.51" y1="413.49" x2="1339.74" y2="413.49" gradientUnits="userSpaceOnUse"><stop offset="0" stop-color="#c3f6ee"/><stop offset="0.38" stop-color="#c6ebfd"/></linearGradient><linearGradient id="linear-gradient-2" x1="67" y1="349.12" x2="136.97" y2="349.12" xlink:href="#linear-gradient"/><linearGradient id="linear-gradient-3" x1="248.46" y1="168.06" x2="469.29" y2="168.06" gradientTransform="translate(288.25 -220.13) rotate(56.51)" xlink:href="#linear-gradient"/><linearGradient id="linear-gradient-4" x1="66" y1="637.49" x2="142" y2="637.49" xlink:href="#linear-gradient"/><linearGradient id="linear-gradient-5" x1="3" y1="676.49" x2="205" y2="676.49" xlink:href="#linear-gradient"/></defs><title>Asset 880</title><g id="Layer_2" data-name="Layer 2"><g id="Layer_1-2" data-name="Layer 1"><path class="cls-1" d="M1562,391.59c0-20.08-22.23-57.6-49.66-57.6s-49.66,37.52-49.66,57.6a27.82,27.82,0,0,0,3.12,12.7,43.61,43.61,0,0,0-3.12,14.72c0,18.21,20.16,33,45,33s45-14.77,45-33a32.37,32.37,0,0,0-.56-5.73C1558.35,407.23,1562,399.72,1562,391.59Z"/><g class="cls-2"><path class="cls-3" d="M1307.36,384.34c-23.67-37.32-60.63-55.85-97-59.73S1137.46,330,1101.7,340C1054,353.3,998,365.29,962,321.19c-21.26-26.1-29.74-68.87-22.13-106.15,5.41-26.52,18.22-50.85,18-78.35-.23-28.51-15.09-54-33.46-68.37s-39.87-19.46-61-23.17c-47.21-8.31-95.91-10.76-141.9,5.35C678,3.54,616.75-12.29,563.34,9.87c-20.17,8.37-39.93,22.69-51.6,46.28-14.11,28.52-14.11,65.13-13.62,99.35q.79,55.3,1.58,110.6c.41,28.41.72,57.62-6.69,84.25-23.61,85-109.44,103.06-151.79,173.74C323.31,554,314.16,592.67,314.52,631a233.14,233.14,0,0,0,15,80.62C359.17,789,428.13,828.18,493,827s126.65-36,184.81-74.58c44-29.18,89.95-61.78,138.87-57.17,49.9,4.7,92.59,47.07,137.74,75.94,73.5,47,159.12,59,238.28,33.41,35-11.32,69.67-30.56,95.29-64.53,39.12-51.85,51.61-130.24,51.75-204C1339.84,482.3,1333.32,425.27,1307.36,384.34Z"/></g><path class="cls-4" d="M1449.5,698a61,61,0,0,0-122,0Z"/><path class="cls-5" d="M1378.5,637.8A61,61,0,0,1,1433.41,698h16a61,61,0,0,0-61-61A60.09,60.09,0,0,0,1378.5,637.8Z"/><path class="cls-6" d="M1271.37,259.74V302H1374V267.24h34V225H1305.33v34.75Zm128.71-.39h-86.85V232.89h86.85Zm-120.81,8.29h86.85v26.46h-86.85Z"/><path class="cls-6" d="M230.37,345.74V388H333V353.24h34V311H264.33v34.75Zm128.71-.39H272.23V318.89h86.85Zm-120.81,8.29h86.85v26.46H238.27Z"/><path class="cls-7" d="M302.5,658H286V638h16.5a15.5,15.5,0,0,0,0-31H302V587h.5a35.5,35.5,0,0,1,0,71Z"/><path class="cls-7" d="M191.66,557H302.41a4.59,4.59,0,0,1,4.59,4.59V676.09A21.9,21.9,0,0,1,285.1,698H209a21.9,21.9,0,0,1-21.9-21.9V561.58a4.59,4.59,0,0,1,4.59-4.59Z"/><path class="cls-8" d="M307,657.61v18c0,16.24-13.17,23.41-29.41,23.41l-68.11-1c-12.95,0-21.85-5-21.85-20C200,679.27,263,698,307,657.61Z"/><path class="cls-9" d="M307,561.58A4.6,4.6,0,0,0,302.4,557H191.65a4.59,4.59,0,0,0-4.59,4.59V571h13.57a7.94,7.94,0,0,0-2.41,5.5c0,5.56,6.61,10.07,14.77,10.07s14.77-4.51,14.77-10.07a7.94,7.94,0,0,0-2.41-5.5H307Z"/><ellipse class="cls-9" cx="225.95" cy="593.95" rx="6.89" ry="4.7" transform="matrix(0.93, -0.35, 0.35, 0.93, -196.08, 118.85)"/><path class="cls-10" d="M82,622.31c-.23-.35-23.44-35.68-32.45-85.62-5.29-29.34-4.73-57.91,1.68-84.92,8-33.76,25.22-65.15,51.15-93.31l.74.68c-25.82,28-42.94,59.27-50.91,92.86-6.37,26.87-6.93,55.31-1.66,84.51,9,49.74,32.07,84.9,32.3,85.25Z"/><path class="cls-10" d="M73,622.31c-.23-.35-23.44-35.68-32.45-85.62-5.29-29.34-4.73-57.91,1.68-84.92,8-33.76,25.22-65.15,51.15-93.31l.74.68c-25.82,28-42.94,59.27-50.91,92.86-6.37,26.87-6.93,55.31-1.66,84.51,9,49.74,32.07,84.9,32.3,85.25Z"/><path class="cls-10" d="M90,323l-1-.23c.1-.41,10.06-41.49,40.38-82.18,17.81-23.9,39.07-43,63.17-56.77,30.13-17.21,64.81-26.08,103.09-26.36v1c-38.09.28-72.61,9.11-102.58,26.22-24,13.69-45.13,32.7-62.86,56.48C100,281.68,90.07,322.59,90,323Z"/><path class="cls-10" d="M100,333l-1-.23c.1-.41,10.06-41.49,40.38-82.18,17.81-23.9,39.07-43,63.17-56.77,30.13-17.21,64.81-26.08,103.09-26.36v1c-38.09.28-72.61,9.11-102.58,26.22-24,13.69-45.13,32.7-62.86,56.48C110,291.68,100.07,332.59,100,333Z"/><rect class="cls-11" x="84.97" y="344.12" width="16.51" height="299.87"/><rect class="cls-12" x="101.49" y="344.12" width="16.51" height="299.87"/><rect class="cls-11" x="195.1" y="108.22" width="18.01" height="299.87" transform="translate(291.12 -59.23) rotate(53.66)"/><rect class="cls-12" x="205.77" y="122.72" width="18.01" height="299.87" transform="matrix(0.59, 0.81, -0.81, 0.59, 307.15, -61.91)"/><circle class="cls-13" cx="101.98" cy="349.12" r="34.98"/><path class="cls-14" d="M137,349.12a35,35,0,0,1-62.1,22.12A35,35,0,0,0,124.1,322,34.92,34.92,0,0,1,137,349.12Z"/><path class="cls-15" d="M331.91,62.48h34a68.18,68.18,0,0,1,68.18,68.18V237.17a16.55,16.55,0,0,1-16.55,16.55H280.28a16.55,16.55,0,0,1-16.55-16.55V130.66a68.18,68.18,0,0,1,68.18-68.18Z" transform="translate(24.53 361.86) rotate(-56.51)"/><path class="cls-14" d="M466.54,153.62,390.79,268.11a16.56,16.56,0,0,1-22.94,4.67l-65.5-43.34S401,269,453.42,125.1l8.45,5.59A16.55,16.55,0,0,1,466.54,153.62Z"/><path class="cls-16" d="M104,617h0a38,38,0,0,1,38,38v3a0,0,0,0,1,0,0H66a0,0,0,0,1,0,0v-3A38,38,0,0,1,104,617Z"/><path class="cls-14" d="M142,655v3h-9v-3a38,38,0,0,0-33.5-37.73A37.12,37.12,0,0,1,104,617a38,38,0,0,1,38,38Z"/><ellipse class="cls-17" cx="89" cy="639.49" rx="14.77" ry="10.07" transform="translate(-481.92 337.96) rotate(-54.24)"/><ellipse class="cls-17" cx="112.95" cy="637.95" rx="6.89" ry="4.7" transform="translate(-496 416.79) rotate(-60)"/><ellipse class="cls-17" cx="348.95" cy="112.95" rx="4.7" ry="6.89" transform="translate(22.34 279.83) rotate(-45)"/><path class="cls-18" d="M42,657H166a39,39,0,0,1,39,39v0a0,0,0,0,1,0,0H3a0,0,0,0,1,0,0v0A39,39,0,0,1,42,657Z"/><g class="cls-19"><path class="cls-20" d="M151.12,668H14.85A38.87,38.87,0,0,1,42,657H159.43l0,.1A8.61,8.61,0,0,1,151.12,668Z"/></g><path class="cls-17" d="M335.48,78.73a27,27,0,0,0-14.66-7.88l7-9.82a68,68,0,0,0-49.23,30.13l-18.77,28.37A67.92,67.92,0,0,0,249.9,171l57.92-81.82a29.08,29.08,0,0,0,6.79,10.38c8.45,8.45,20,10.63,25.74,4.87S343.94,87.18,335.48,78.73Z"/><ellipse class="cls-21" cx="799" cy="733.22" rx="465" ry="28.01"/><path class="cls-22" d="M1165.5,651.24h-718V204.82a8.33,8.33,0,0,1,8.33-8.33h701.35a8.33,8.33,0,0,1,8.33,8.33Z"/><rect class="cls-23" x="479.22" y="230.18" width="655.57" height="394.75"/><rect class="cls-24" x="481.32" y="619.49" width="650.18" height="4.35"/><rect class="cls-24" x="480.74" y="234.49" width="650.18" height="4"/><rect class="cls-25" x="477.52" y="225.49" width="657.97" height="8"/><path class="cls-26" d="M1127.54,635.49h-642a8,8,0,0,1-8-8h658A8,8,0,0,1,1127.54,635.49Z"/><path class="cls-27" d="M1131.48,234.49v389h-650v-389h650m4-4h-658v397h658v-397Z"/><circle class="cls-27" cx="806.5" cy="213.49" r="5"/><circle class="cls-28" cx="817.5" cy="213.49" r="2.5"/><circle class="cls-29" cx="806.5" cy="213.49" r="2.5"/><rect class="cls-24" x="567" y="271.05" width="162" height="153"/><rect class="cls-24" x="748" y="488.05" width="299" height="96"/><rect class="cls-30" x="748" y="379.55" width="299" height="96"/><rect class="cls-24" x="748" y="271.05" width="299" height="96"/><rect class="cls-30" x="567" y="441.05" width="162" height="143"/><path class="cls-25" d="M407.83,650.49H381.7c-5.58,0-9.67,4.73-8.5,9.73,4.87,20.73,25,36.27,49.09,36.27h772.91c24.09,0,44.22-15.54,49.09-36.27,1.17-5-2.92-9.73-8.5-9.73h-11.39"/><g class="cls-31"><path class="cls-32" d="M1244.3,660.22c-4.87,20.73-25,36.27-49.09,36.27H422.29c-24.09,0-44.22-15.54-49.09-36.27a7.53,7.53,0,0,1,1.64-6.64c6.81,18,25.48,30.91,47.45,30.91h772.92c22,0,40.64-12.92,47.45-30.91A7.53,7.53,0,0,1,1244.3,660.22Z"/></g><path class="cls-32" d="M886.25,668.49h-155a18,18,0,0,1-18-18h191A18,18,0,0,1,886.25,668.49Z"/><path class="cls-33" d="M904.5,650.49a18,18,0,0,1-18,18h-155a17.94,17.94,0,0,1-15.17-8.33A17.85,17.85,0,0,0,726,663H881a18,18,0,0,0,17.14-12.5Z"/><g class="cls-34"><rect class="cls-35" x="1084.5" y="300.49" width="81" height="101"/></g><rect class="cls-36" x="1084.5" y="288.49" width="136" height="101"/><polyline class="cls-37" points="1220.5 389.49 1084.5 389.49 1084.5 385.99 1217 385.99 1220.5 385.99"/><rect class="cls-22" x="1102.5" y="308.49" width="78" height="6"/><rect class="cls-22" x="1102.5" y="323.74" width="43" height="6"/><rect class="cls-22" x="1102.5" y="354.24" width="43" height="6"/><rect class="cls-22" x="1102.5" y="369.49" width="43" height="6"/><rect class="cls-22" x="1102.5" y="338.99" width="95" height="6"/><rect class="cls-24" x="765.5" y="393.49" width="265" height="7"/><rect class="cls-24" x="765.5" y="407.16" width="265" height="7"/><rect class="cls-24" x="765.5" y="420.82" width="265" height="7"/><rect class="cls-24" x="765.5" y="434.49" width="265" height="7"/><g class="cls-34"><rect class="cls-35" x="447.5" y="369.49" width="81" height="101"/></g><rect class="cls-36" x="392.5" y="357.49" width="136" height="101"/><polyline class="cls-37" points="528.5 458.49 392.5 458.49 392.5 454.99 525 454.99 528.5 454.99"/><rect class="cls-22" x="410.5" y="377.49" width="78" height="6"/><rect class="cls-22" x="410.5" y="392.74" width="43" height="6"/><rect class="cls-22" x="410.5" y="423.24" width="43" height="6"/><rect class="cls-22" x="410.5" y="438.49" width="43" height="6"/><rect class="cls-22" x="410.5" y="407.99" width="95" height="6"/><path class="cls-38" d="M1542,743H81c-28.17,0-51-4.83-51-33H1593C1593,738.16,1570.17,743,1542,743Z"/><path class="cls-39" d="M30,714H1593a0,0,0,0,1,0,0v0a19,19,0,0,1-19,19H49a19,19,0,0,1-19-19v0A0,0,0,0,1,30,714Z"/><rect class="cls-38" y="695.99" width="1620" height="18" rx="9" ry="9"/><path class="cls-40" d="M1620.69,709.06c-1.23,2.82-6,4.93-11.69,4.93H11c-6.6,0-10-2.86-10-6.35v-5.29c0-3,4-5.54,9.31-6.19a3.54,3.54,0,0,0-.31,1.42v5.29c0,3.49,5.4,6.35,12,6.35H1618A22.15,22.15,0,0,0,1620.69,709.06Z"/><path class="cls-40" d="M97.43,701.64a474.78,474.78,0,0,0,47.71,2.31c6.12,0,11.08-.09,14.5-.13s5.33,0,5.34.17-1.87.47-5.29.82-8.38.71-14.52.94a352.78,352.78,0,0,1-48-1.57L83.6,702.77c-4.39-.51-8.6-.83-12.63-1-8.06-.44-15.33-.45-21.44-.28-12.22.36-19.76,1.26-19.81.86,0-.16,1.83-.61,5.23-1.13s8.34-1.14,14.49-1.53a208.91,208.91,0,0,1,21.63-.27c4.07.16,8.35.43,12.74.91Z"/><path class="cls-40" d="M246.43,701.64a474.78,474.78,0,0,0,47.71,2.31c6.12,0,11.08-.09,14.5-.13s5.33,0,5.34.17-1.87.47-5.29.82-8.38.71-14.52.94a352.78,352.78,0,0,1-48-1.57l-13.57-1.42c-4.39-.51-8.6-.83-12.63-1-8.06-.44-15.33-.45-21.44-.28-12.22.36-19.76,1.26-19.81.86,0-.16,1.83-.61,5.23-1.13s8.34-1.14,14.49-1.53a208.91,208.91,0,0,1,21.63-.27c4.07.16,8.35.43,12.74.91Z"/><path class="cls-40" d="M590.43,701.64a474.78,474.78,0,0,0,47.71,2.31c6.12,0,11.08-.09,14.5-.13s5.33,0,5.34.17-1.87.47-5.29.82-8.38.71-14.52.94a352.78,352.78,0,0,1-48-1.57l-13.57-1.42c-4.39-.51-8.6-.83-12.63-1-8.06-.44-15.33-.45-21.44-.28-12.22.36-19.76,1.26-19.81.86,0-.16,1.83-.61,5.23-1.13s8.34-1.14,14.49-1.53a208.91,208.91,0,0,1,21.63-.27c4.07.16,8.35.43,12.74.91Z"/><path class="cls-40" d="M929.43,701.64a474.78,474.78,0,0,0,47.71,2.31c6.12,0,11.08-.09,14.5-.13s5.33,0,5.34.17-1.87.47-5.29.82-8.38.71-14.52.94a352.78,352.78,0,0,1-48-1.57l-13.57-1.42c-4.39-.51-8.6-.83-12.63-1-8.06-.44-15.33-.45-21.44-.28-12.22.36-19.76,1.26-19.81.86,0-.16,1.83-.61,5.23-1.13s8.34-1.14,14.49-1.53a208.91,208.91,0,0,1,21.63-.27c4.07.16,8.35.43,12.74.91Z"/><path class="cls-40" d="M1026.46,704.9a285.27,285.27,0,0,0,28.41,4.1c3.66.35,6.63.58,8.68.75a13.39,13.39,0,0,1,3.19.41,12.59,12.59,0,0,1-3.21.19c-2.07,0-5.05-.06-8.74-.27a212,212,0,0,1-28.62-3.68l-8-1.62c-2.59-.56-5.09-1-7.49-1.35-4.79-.72-9.14-1.15-12.81-1.39-7.33-.48-11.89-.37-11.9-.62a12,12,0,0,1,3.2-.38c2.06-.12,5.06-.21,8.75-.09a125.52,125.52,0,0,1,13,1.07c2.42.33,5,.73,7.57,1.27Z"/><path class="cls-40" d="M685.46,704.9a285.27,285.27,0,0,0,28.41,4.1c3.66.35,6.63.58,8.68.75a13.39,13.39,0,0,1,3.19.41,12.59,12.59,0,0,1-3.21.19c-2.07,0-5.05-.06-8.74-.27a212,212,0,0,1-28.62-3.68l-8-1.62c-2.59-.56-5.09-1-7.49-1.35-4.79-.72-9.14-1.15-12.81-1.39-7.33-.48-11.89-.37-11.9-.62a12,12,0,0,1,3.2-.38c2.06-.12,5.06-.21,8.75-.09a125.52,125.52,0,0,1,13,1.07c2.42.33,5,.73,7.57,1.27Z"/><path class="cls-40" d="M344.46,704.9a285.27,285.27,0,0,0,28.41,4.1c3.66.35,6.63.58,8.68.75a13.39,13.39,0,0,1,3.19.41,12.59,12.59,0,0,1-3.21.19c-2.07,0-5.05-.06-8.74-.27a212,212,0,0,1-28.62-3.68l-8-1.62c-2.59-.56-5.09-1-7.49-1.35-4.79-.72-9.14-1.15-12.81-1.39-7.33-.48-11.89-.37-11.9-.62a12,12,0,0,1,3.2-.38c2.06-.12,5.06-.21,8.75-.09a125.52,125.52,0,0,1,13,1.07c2.42.33,5,.73,7.57,1.27Z"/><path class="cls-40" d="M1217.46,704.9a285.27,285.27,0,0,0,28.41,4.1c3.66.35,6.63.58,8.68.75a13.39,13.39,0,0,1,3.19.41,12.59,12.59,0,0,1-3.21.19c-2.07,0-5.05-.06-8.74-.27a212,212,0,0,1-28.62-3.68l-8-1.62c-2.59-.56-5.09-1-7.49-1.35-4.79-.72-9.14-1.15-12.81-1.39-7.33-.48-11.89-.37-11.9-.62a12,12,0,0,1,3.2-.38c2.06-.12,5.06-.21,8.75-.09a125.52,125.52,0,0,1,13,1.07c2.42.33,5,.73,7.57,1.27Z"/><path class="cls-40" d="M1421.46,704.9a285.27,285.27,0,0,0,28.41,4.1c3.66.35,6.63.58,8.68.75a13.39,13.39,0,0,1,3.19.41,12.59,12.59,0,0,1-3.21.19c-2.07,0-5.05-.06-8.74-.27a212,212,0,0,1-28.62-3.68l-8-1.62c-2.59-.56-5.09-1-7.49-1.35-4.79-.72-9.14-1.15-12.81-1.39-7.33-.48-11.89-.37-11.9-.62a12,12,0,0,1,3.2-.38c2.06-.12,5.06-.21,8.75-.09a125.52,125.52,0,0,1,13,1.07c2.42.33,5,.73,7.57,1.27Z"/><path class="cls-40" d="M1288.43,701.64a474.78,474.78,0,0,0,47.71,2.31c6.12,0,11.08-.09,14.5-.13s5.33,0,5.34.17-1.87.47-5.29.82-8.38.71-14.52.94a352.78,352.78,0,0,1-48-1.57l-13.57-1.42c-4.39-.51-8.6-.83-12.63-1-8.06-.44-15.33-.45-21.44-.28-12.22.36-19.76,1.26-19.81.86,0-.16,1.83-.61,5.23-1.13s8.34-1.14,14.49-1.53a208.91,208.91,0,0,1,21.63-.27c4.07.16,8.35.43,12.74.91Z"/><path class="cls-40" d="M1107.43,701.64a474.78,474.78,0,0,0,47.71,2.31c6.12,0,11.08-.09,14.5-.13s5.33,0,5.34.17-1.87.47-5.29.82-8.38.71-14.52.94a352.78,352.78,0,0,1-48-1.57l-13.57-1.42c-4.39-.51-8.6-.83-12.63-1-8.06-.44-15.33-.45-21.44-.28-12.22.36-19.76,1.26-19.81.86,0-.16,1.83-.61,5.23-1.13s8.34-1.14,14.49-1.53a208.91,208.91,0,0,1,21.63-.27c4.07.16,8.35.43,12.74.91Z"/><path class="cls-40" d="M1532.43,701.64a474.78,474.78,0,0,0,47.71,2.31c6.12,0,11.08-.09,14.5-.13s5.33,0,5.34.17-1.87.47-5.29.82-8.38.71-14.52.94a352.78,352.78,0,0,1-48-1.57l-13.57-1.42c-4.39-.51-8.6-.83-12.63-1-8.06-.44-15.33-.45-21.44-.28-12.22.36-19.76,1.26-19.81.86,0-.16,1.83-.61,5.23-1.13s8.34-1.14,14.49-1.53a208.91,208.91,0,0,1,21.63-.27c4.07.16,8.35.43,12.74.91Z"/><path class="cls-40" d="M757.43,701.64a474.78,474.78,0,0,0,47.71,2.31c6.12,0,11.08-.09,14.5-.13s5.33,0,5.34.17-1.87.47-5.29.82-8.38.71-14.52.94a352.78,352.78,0,0,1-48-1.57l-13.57-1.42c-4.39-.51-8.6-.83-12.63-1-8.06-.44-15.33-.45-21.44-.28-12.22.36-19.76,1.26-19.81.86,0-.16,1.83-.61,5.23-1.13s8.34-1.14,14.49-1.53a208.91,208.91,0,0,1,21.63-.27c4.07.16,8.35.43,12.74.91Z"/><path class="cls-40" d="M426.43,701.64a474.78,474.78,0,0,0,47.71,2.31c6.12,0,11.08-.09,14.5-.13s5.33,0,5.34.17-1.87.47-5.29.82-8.38.71-14.52.94a352.78,352.78,0,0,1-48-1.57l-13.57-1.42c-4.39-.51-8.6-.83-12.63-1-8.06-.44-15.33-.45-21.44-.28-12.22.36-19.76,1.26-19.81.86,0-.16,1.83-.61,5.23-1.13s8.34-1.14,14.49-1.53a208.91,208.91,0,0,1,21.63-.27c4.07.16,8.35.43,12.74.91Z"/><g class="cls-41"><path class="cls-42" d="M238,506.61c2.38-5.66,4.21-11,4.37-16a32.72,32.72,0,0,0-2.48-13.08c-1.41-3.69-2.86-6.64-3.75-8.75s-1.29-3.36-1-3.54,1.25.71,2.69,2.52a53.15,53.15,0,0,1,5.34,8.3,38.9,38.9,0,0,1,2.65,6.48,28.82,28.82,0,0,1,1.24,8.15,34.06,34.06,0,0,1-1.23,9,70.86,70.86,0,0,1-3.12,8.85c-1.2,2.91-2.43,5.67-3.49,8.33-.53,1.33-1,2.63-1.44,3.91l-.55,1.85-.43,1.85a29.28,29.28,0,0,0,.28,13.17,19.4,19.4,0,0,0,2,4.58c.42.59.81,1.17,1.22,1.65s.8.93,1.21,1.27.76.66,1.08.95.63.45.86.65c.46.38.7.67.64.84s-.41.2-1,.11a9,9,0,0,1-1.17-.26c-.43-.17-.93-.39-1.5-.66a14.39,14.39,0,0,1-1.74-1.12,18.14,18.14,0,0,1-1.81-1.69,19,19,0,0,1-3.14-5.12,29.61,29.61,0,0,1-1.51-15.16c.11-.71.26-1.43.4-2.16s.37-1.45.56-2.19q.64-2.13,1.42-4.25C235.65,512.26,236.86,509.45,238,506.61Z"/><path class="cls-42" d="M254.09,522.29c.93-3.72,2.09-7,2.92-10a48.16,48.16,0,0,0,1.62-7.9c.51-4.51-.29-7.37.41-7.67.3-.13,1,.43,1.64,1.73a16,16,0,0,1,1.56,6,32.75,32.75,0,0,1-.65,9c-.64,3.28-1.67,6.68-2.54,10.15a37.11,37.11,0,0,0-1.35,9.55,19.57,19.57,0,0,0,1.59,7.37c1.74,4,4.4,5.48,4.07,6.19-.07.16-.31.23-.72.21a5,5,0,0,1-1.68-.44,11.73,11.73,0,0,1-4.8-4.16,19.1,19.1,0,0,1-3.16-8.86A32.64,32.64,0,0,1,254.09,522.29Z"/><ellipse class="cls-42" cx="224.5" cy="533.49" rx="2.55" ry="0.5"/><path class="cls-42" d="M223.25,493.63a82.08,82.08,0,0,0,.4-13.7,47.42,47.42,0,0,0-1.9-10.86c-1.84-6-4.43-9.22-3.81-9.76.24-.22,1.21.3,2.6,1.66a23.64,23.64,0,0,1,4.59,6.8,39.14,39.14,0,0,1,3.21,11.71,65.11,65.11,0,0,1,0,14.69c-.56,5.12-1.42,9.87-2.17,14.15s-1.39,8.09-1.78,11.3c-.84,6.42-.79,10.48-1.53,10.58s-2-4-2.07-10.78a92.38,92.38,0,0,1,.73-11.77C222,503.27,222.72,498.54,223.25,493.63Z"/></g><path class="cls-12" d="M1583.52,389.51a2.5,2.5,0,0,1-1.95-.93L1567.35,371l-27.43,14.79a2.5,2.5,0,1,1-2.37-4.4l31.08-16.77,16.83,20.82a2.5,2.5,0,0,1-1.94,4.07Z"/><path class="cls-12" d="M1581.14,370.66a2.5,2.5,0,0,1-1.95-.93L1565,352.13l-27.43,14.79a2.5,2.5,0,1,1-2.37-4.4l31.08-16.77,16.83,20.82a2.5,2.5,0,0,1-1.94,4.07Z"/><path class="cls-12" d="M1578.77,351.81a2.5,2.5,0,0,1-1.95-.93l-14.22-17.6-27.43,14.79a2.5,2.5,0,1,1-2.37-4.4l31.08-16.77,16.83,20.82a2.5,2.5,0,0,1-1.94,4.07Z"/><path class="cls-12" d="M1446.74,384a2.49,2.49,0,0,1-1.41-.44l-25.73-17.59-16,16a2.5,2.5,0,1,1-3.54-3.53L1419,359.47l29.15,19.93a2.5,2.5,0,0,1-1.41,4.56Z"/><path class="cls-12" d="M1451.07,365.47a2.49,2.49,0,0,1-1.41-.44l-25.73-17.59-16,16a2.5,2.5,0,1,1-3.54-3.53L1423.33,341l29.15,19.93a2.5,2.5,0,0,1-1.41,4.56Z"/><path class="cls-12" d="M1455.41,347a2.49,2.49,0,0,1-1.41-.44l-25.73-17.59-16,16a2.5,2.5,0,1,1-3.54-3.53l18.92-18.95,29.15,19.93a2.5,2.5,0,0,1-1.41,4.56Z"/><path class="cls-12" d="M1514,446.51c0,8.55-8.91,15.48-19.89,15.48s-19.89-6.93-19.89-15.48,8.91-24.52,19.89-24.52S1514,438,1514,446.51Z"/><g class="cls-41"><path class="cls-12" d="M1493.5,351.49a4,4,0,0,1-4-4v-182a4,4,0,1,1,8,0v182A4,4,0,0,1,1493.5,351.49Z"/></g><path class="cls-11" d="M1546.32,372.71c0,18.38-23.65,33.28-52.82,33.28s-52.82-14.9-52.82-33.28S1464.33,320,1493.5,320,1546.32,354.33,1546.32,372.71Z"/><path class="cls-6" d="M1546.32,372.71c0,18.38-23.65,33.28-52.82,33.28q-2.12,0-4.21-.1c27.2-1.35,48.61-15.69,48.61-33.18s-21.41-49.43-48.61-52.48a37.09,37.09,0,0,1,4.21-.24C1522.67,320,1546.32,354.33,1546.32,372.71Z"/><path class="cls-11" d="M1538.73,412.64c.17,15.39-19.49,28.08-43.91,28.34s-44.35-12-44.52-27.38S1469.62,369.26,1494,369,1538.57,397.26,1538.73,412.64Z"/><path class="cls-6" d="M1533,395.22c-.57.39-1.15-2.23-1.75-1.85-7.95-12.17-21.4-20.38-36.65-20.38-15.43,0-29,8.48-36.93,20.82-.6-.36-1.18,2.27-1.75,1.9,7.55-13.37,22-26.72,38.68-26.72C1511,369,1525.35,382,1533,395.22Z"/><circle class="cls-20" cx="1474.5" cy="412.99" r="16"/><circle class="cls-20" cx="1513.5" cy="412.99" r="16"/><circle class="cls-43" cx="1505.5" cy="412.99" r="8"/><circle class="cls-20" cx="1511" cy="407.99" r="5"/><circle class="cls-20" cx="1472" cy="407.99" r="5"/><circle class="cls-43" cx="1466.5" cy="412.99" r="8"/><path class="cls-20" d="M1455.76,347a23.28,23.28,0,0,1,5.93-6c1.83-1.22,3.25-1.58,3.71-1.06.93,1.1-2.08,5.1-5.43,10s-6.07,9.1-7.43,8.62c-.65-.25-.81-1.7-.32-3.84A23.28,23.28,0,0,1,1455.76,347Z"/><path class="cls-20" d="M1474.07,331a11,11,0,0,1,5.44-1.06c1.46.15,2.37.69,2.46,1.38s-.6,1.43-1.66,2.14a41.21,41.21,0,0,1-8.44,3.89c-1.23.34-2.23.4-2.7-.13s-.29-1.56.55-2.77A11,11,0,0,1,1474.07,331Z"/><circle class="cls-20" cx="1472" cy="407.99" r="5"/><g class="cls-41"><rect class="cls-44" x="1470.42" y="585.07" width="92" height="92"/><rect class="cls-20" x="1489.92" y="604.57" width="53" height="53" rx="26.5" ry="26.5"/><rect class="cls-12" x="1505.42" y="622.99" width="8" height="16.17" rx="4" ry="4"/><rect class="cls-12" x="1519.42" y="622.99" width="8" height="16.17" rx="4" ry="4"/></g></g></g></svg>