<?xml version="1.0" encoding="utf-8"?>
<!-- Generator: Adobe Illustrator 26.0.1, SVG Export Plug-In . SVG Version: 6.00 Build 0)  -->
<svg version="1.1" id="Layer_1" xmlns="http://www.w3.org/2000/svg" xmlns:xlink="http://www.w3.org/1999/xlink" x="0px" y="0px"
	 viewBox="0 0 562 100" style="enable-background:new 0 0 562 100;" xml:space="preserve">
<style type="text/css">
	.st0{fill:#2C4251;}
</style>
<g>
	<path class="st0" d="M89.43,82.67c4.75,0,9.16-0.7,13.38-1.41c4.4-0.53,8.45-1.23,12.68-1.23c9.86,0,15.14,4.23,15.32,14.09v2.99
		h9.68v-3.7c0-14.44-6.34-25.53-24.12-25.53c-4.75,0-9.68,0.7-14.44,1.41c-4.75,0.7-9.51,1.41-14.26,1.41
		c-3.89,0-9.02-1.41-12.97-5.92c-1.48-1.69,21.7-21.2,21.7-21.2s11.34,11.99,17.38,18.04s14.15-2.33,8.39-8.08
		S69.88,0.09,69.88,0.09S23.23,46.66,16.56,53.33s1.42,15.05,7.99,8.48S43.9,43.58,43.9,43.58s21.9,19.59,20.29,21.2
		C59.98,69,57.06,70.7,52.63,70.7c-4.93,0-9.86-0.7-14.79-1.41c-4.93-0.7-9.68-1.41-14.61-1.41c-16.2,0-23.07,10.74-23.07,25.71
		v3.52h9.68v-3.17c0.18-10.21,5.63-13.91,15.14-13.91c4.05,0,8.28,0.7,12.5,1.23c4.4,0.7,8.63,1.41,13.38,1.41
		c5.58,0,12.53-4.35,19.46-4.35C77.15,78.32,83.94,82.67,89.43,82.67z M51.49,34.69l17.9-19.12l18.03,18.72l-17.9,19.12L51.49,34.69
		z"/>
	<g>
		<g>
			<path class="st0" d="M157.47,51.64c-3.29-1.71-5.86-4.07-7.71-7.1c-1.85-3.03-2.78-6.46-2.78-10.31c0-3.84,0.92-7.28,2.78-10.31
				c1.85-3.03,4.42-5.39,7.71-7.1c3.29-1.71,7-2.56,11.14-2.56c4.08,0,7.65,0.85,10.7,2.56c3.05,1.71,5.27,4.15,6.67,7.32
				l-8.72,4.69c-2.02-3.56-4.93-5.33-8.72-5.33c-2.93,0-5.36,0.96-7.28,2.88c-1.92,1.92-2.88,4.54-2.88,7.86s0.96,5.94,2.88,7.86
				c1.92,1.92,4.35,2.88,7.28,2.88c3.84,0,6.75-1.78,8.72-5.33l8.72,4.76c-1.39,3.08-3.62,5.48-6.67,7.21
				c-3.05,1.73-6.62,2.59-10.7,2.59C164.48,54.2,160.77,53.35,157.47,51.64z"/>
			<path class="st0" d="M199.43,51.64c-3.24-1.71-5.78-4.07-7.6-7.1c-1.83-3.03-2.74-6.46-2.74-10.31c0-3.84,0.91-7.28,2.74-10.31
				c1.83-3.03,4.36-5.39,7.6-7.1c3.24-1.71,6.91-2.56,10.99-2.56c4.08,0,7.74,0.85,10.96,2.56c3.22,1.71,5.74,4.07,7.57,7.1
				c1.83,3.03,2.74,6.46,2.74,10.31c0,3.85-0.91,7.28-2.74,10.31c-1.83,3.03-4.35,5.39-7.57,7.1c-3.22,1.71-6.87,2.56-10.96,2.56
				C206.34,54.2,202.67,53.35,199.43,51.64z M217.52,42.06c1.85-1.95,2.78-4.55,2.78-7.82c0-3.27-0.93-5.87-2.78-7.82
				c-1.85-1.95-4.22-2.92-7.1-2.92c-2.88,0-5.26,0.97-7.14,2.92s-2.81,4.55-2.81,7.82c0,3.27,0.94,5.87,2.81,7.82
				c1.87,1.95,4.25,2.92,7.14,2.92C213.3,44.98,215.67,44,217.52,42.06z"/>
			<path class="st0" d="M278.68,0.14v53.49h-10.74v-4.47c-2.79,3.36-6.82,5.05-12.11,5.05c-3.65,0-6.96-0.82-9.91-2.45
				c-2.96-1.63-5.27-3.96-6.96-6.99c-1.68-3.03-2.52-6.54-2.52-10.52c0-3.99,0.84-7.5,2.52-10.52c1.68-3.03,4-5.36,6.96-6.99
				c2.96-1.63,6.26-2.45,9.91-2.45c4.95,0,8.82,1.56,11.61,4.69V0.14H278.68z M264.84,42.06c1.87-1.95,2.81-4.55,2.81-7.82
				c0-3.27-0.94-5.87-2.81-7.82c-1.87-1.95-4.23-2.92-7.06-2.92c-2.88,0-5.26,0.97-7.14,2.92c-1.87,1.95-2.81,4.55-2.81,7.82
				c0,3.27,0.94,5.87,2.81,7.82c1.87,1.95,4.25,2.92,7.14,2.92C260.61,44.98,262.97,44,264.84,42.06z"/>
			<path class="st0" d="M326.83,37.41H297.5c0.53,2.4,1.78,4.3,3.75,5.69c1.97,1.39,4.42,2.09,7.35,2.09c2.02,0,3.81-0.3,5.37-0.9
				c1.56-0.6,3.01-1.55,4.36-2.85l5.98,6.49c-3.65,4.18-8.99,6.27-16,6.27c-4.37,0-8.24-0.85-11.61-2.56
				c-3.36-1.71-5.96-4.07-7.79-7.1c-1.83-3.03-2.74-6.46-2.74-10.31c0-3.8,0.9-7.22,2.7-10.27c1.8-3.05,4.28-5.43,7.42-7.14
				c3.15-1.71,6.67-2.56,10.56-2.56c3.8,0,7.23,0.82,10.31,2.45c3.07,1.63,5.49,3.98,7.24,7.03c1.75,3.05,2.63,6.6,2.63,10.63
				C327.05,34.52,326.98,35.53,326.83,37.41z M300.52,24.94c-1.73,1.44-2.79,3.41-3.17,5.91h19.1c-0.39-2.45-1.44-4.41-3.17-5.87
				c-1.73-1.47-3.85-2.2-6.34-2.2C304.39,22.77,302.25,23.49,300.52,24.94z"/>
			<path class="st0" d="M350.73,15.71c2.28-0.96,4.91-1.44,7.89-1.44v10.38c-1.25-0.1-2.09-0.14-2.52-0.14
				c-3.22,0-5.74,0.9-7.57,2.7c-1.83,1.8-2.74,4.51-2.74,8.11v18.31h-11.25V14.84h10.74v5.12
				C346.63,18.09,348.45,16.67,350.73,15.71z"/>
			<path class="st0" d="M368.9,52.65c-2.81-0.89-5.01-2.01-6.6-3.35l2.31-4.04c1.59,1.25,3.58,2.27,5.98,3.06
				c2.4,0.79,4.9,1.19,7.5,1.19c3.46,0,6.02-0.54,7.68-1.62c1.66-1.08,2.49-2.61,2.49-4.58c0-1.39-0.46-2.49-1.37-3.28
				c-0.91-0.79-2.07-1.39-3.46-1.8c-1.39-0.41-3.24-0.8-5.55-1.19c-3.08-0.58-5.55-1.16-7.42-1.77c-1.87-0.6-3.47-1.62-4.79-3.06
				c-1.32-1.44-1.98-3.44-1.98-5.98c0-3.17,1.32-5.77,3.96-7.79c2.64-2.02,6.32-3.03,11.03-3.03c2.45,0,4.9,0.32,7.35,0.97
				c2.45,0.65,4.47,1.5,6.05,2.56l-2.23,4.11c-3.12-2.16-6.85-3.24-11.17-3.24c-3.27,0-5.73,0.58-7.39,1.73
				c-1.66,1.15-2.49,2.67-2.49,4.54c0,1.44,0.47,2.59,1.41,3.46c0.94,0.86,2.1,1.5,3.5,1.91c1.39,0.41,3.32,0.83,5.77,1.26
				c3.03,0.58,5.45,1.15,7.28,1.73c1.83,0.58,3.39,1.56,4.69,2.96c1.3,1.39,1.95,3.32,1.95,5.77c0,3.32-1.38,5.95-4.14,7.89
				c-2.76,1.95-6.6,2.92-11.5,2.92C374.65,53.99,371.71,53.54,368.9,52.65z"/>
			<path class="st0" d="M408.43,51.5c-2.93-1.66-5.24-3.95-6.92-6.88c-1.68-2.93-2.52-6.25-2.52-9.95c0-3.7,0.84-7.02,2.52-9.95
				c1.68-2.93,3.99-5.21,6.92-6.85c2.93-1.63,6.22-2.45,9.87-2.45c3.65,0,6.94,0.82,9.88,2.45c2.93,1.63,5.23,3.92,6.88,6.85
				c1.66,2.93,2.49,6.25,2.49,9.95c0,3.7-0.83,7.02-2.49,9.95c-1.66,2.93-3.95,5.23-6.88,6.88c-2.93,1.66-6.22,2.49-9.88,2.49
				C414.66,53.99,411.36,53.16,408.43,51.5z M425.55,47.61c2.14-1.23,3.81-2.97,5.01-5.23c1.2-2.26,1.8-4.83,1.8-7.71
				c0-2.88-0.6-5.45-1.8-7.71c-1.2-2.26-2.87-4-5.01-5.23c-2.14-1.23-4.55-1.84-7.24-1.84c-2.69,0-5.11,0.61-7.24,1.84
				c-2.14,1.23-3.82,2.97-5.05,5.23c-1.23,2.26-1.84,4.83-1.84,7.71c0,2.88,0.61,5.45,1.84,7.71c1.23,2.26,2.91,4,5.05,5.23
				c2.14,1.23,4.55,1.84,7.24,1.84C421,49.44,423.41,48.83,425.55,47.61z"/>
			<path class="st0" d="M482.17,15.71v37.92h-4.9v-6.92c-1.35,2.31-3.2,4.1-5.55,5.37c-2.36,1.27-5.05,1.91-8.07,1.91
				c-4.95,0-8.86-1.38-11.71-4.14c-2.86-2.76-4.29-6.81-4.29-12.15V15.71h5.12v21.48c0,3.99,0.98,7.02,2.96,9.08
				c1.97,2.07,4.78,3.1,8.43,3.1c3.99,0,7.14-1.21,9.44-3.64c2.31-2.43,3.46-5.8,3.46-10.13v-19.9H482.17z"/>
			<path class="st0" d="M516.49,51.32c-0.96,0.86-2.15,1.53-3.57,1.98c-1.42,0.46-2.9,0.68-4.43,0.68c-3.56,0-6.3-0.96-8.22-2.88
				c-1.92-1.92-2.88-4.64-2.88-8.15V20.03h-6.78v-4.32h6.78V7.42h5.12v8.29h11.53v4.32H502.5v22.63c0,2.26,0.56,3.98,1.69,5.15
				c1.13,1.18,2.75,1.77,4.87,1.77c1.06,0,2.08-0.17,3.06-0.5c0.98-0.34,1.84-0.82,2.56-1.44L516.49,51.32z"/>
			<path class="st0" d="M556.46,19.57c2.81,2.76,4.22,6.79,4.22,12.07v21.99h-5.12V32.14c0-3.94-0.98-6.94-2.96-9.01
				c-1.97-2.07-4.78-3.1-8.43-3.1c-4.09,0-7.32,1.21-9.7,3.64c-2.38,2.43-3.57,5.78-3.57,10.06v19.9h-5.12V0.14h5.12v22.2
				c1.39-2.21,3.32-3.92,5.77-5.12c2.45-1.2,5.26-1.8,8.43-1.8C549.86,15.42,553.64,16.8,556.46,19.57z"/>
		</g>
		<g>
			<path class="st0" d="M167.67,84.77c0,1.11-0.14,2.19-0.4,3.24c-0.27,1.05-0.68,1.98-1.24,2.79c-0.56,0.81-1.26,1.46-2.1,1.95
				c-0.85,0.49-1.85,0.74-3.01,0.74c-1.07,0-2.05-0.21-2.93-0.62c-0.89-0.41-1.63-1.01-2.24-1.79v8.69h-1.9V76.02h1.78l0.08,2.35
				c0.6-0.85,1.34-1.5,2.22-1.97c0.88-0.47,1.87-0.7,2.97-0.7c1.17,0,2.19,0.24,3.05,0.72c0.86,0.48,1.56,1.13,2.11,1.94
				c0.55,0.81,0.96,1.74,1.23,2.79c0.27,1.05,0.4,2.15,0.4,3.29V84.77z M165.76,84.44c0-0.86-0.09-1.71-0.29-2.55
				c-0.19-0.85-0.5-1.6-0.92-2.28c-0.42-0.67-0.97-1.22-1.64-1.63c-0.67-0.42-1.49-0.63-2.47-0.63c-0.55,0-1.07,0.08-1.55,0.23
				s-0.92,0.37-1.32,0.65c-0.4,0.28-0.75,0.61-1.06,1c-0.31,0.39-0.57,0.81-0.79,1.28v8.5c0.44,0.89,1.08,1.59,1.9,2.11
				c0.83,0.52,1.77,0.78,2.84,0.78c0.96,0,1.78-0.21,2.45-0.63c0.67-0.42,1.22-0.97,1.63-1.64c0.42-0.67,0.72-1.43,0.91-2.28
				c0.19-0.85,0.29-1.71,0.29-2.56V84.44z"/>
			<path class="st0" d="M185.09,93.18c-0.12-0.35-0.21-0.74-0.27-1.17c-0.06-0.43-0.11-0.86-0.13-1.31
				c-0.33,0.4-0.71,0.77-1.14,1.11c-0.43,0.34-0.91,0.63-1.42,0.88c-0.51,0.25-1.07,0.44-1.66,0.59c-0.59,0.14-1.21,0.21-1.86,0.21
				c-0.8,0-1.55-0.12-2.24-0.35c-0.69-0.23-1.3-0.56-1.81-0.98c-0.51-0.42-0.91-0.93-1.21-1.53c-0.29-0.6-0.44-1.27-0.44-2.01
				c0-0.98,0.22-1.82,0.65-2.51c0.43-0.69,1.02-1.25,1.76-1.67c0.74-0.43,1.6-0.74,2.57-0.94c0.97-0.2,1.99-0.3,3.06-0.3h3.71v-1.95
				c-0.01-0.65-0.14-1.21-0.38-1.71c-0.24-0.49-0.57-0.9-0.99-1.24c-0.42-0.33-0.91-0.58-1.49-0.75c-0.58-0.17-1.2-0.25-1.88-0.25
				c-0.61,0-1.2,0.08-1.75,0.24c-0.56,0.16-1.05,0.39-1.48,0.68c-0.43,0.3-0.78,0.66-1.04,1.09c-0.26,0.43-0.41,0.91-0.43,1.45
				l-1.9-0.02c0.03-0.73,0.22-1.4,0.58-2.01c0.35-0.61,0.83-1.14,1.44-1.59c0.6-0.45,1.3-0.8,2.1-1.06c0.8-0.25,1.65-0.38,2.56-0.38
				c0.91,0,1.76,0.12,2.56,0.35c0.8,0.23,1.49,0.58,2.08,1.05c0.59,0.47,1.05,1.05,1.4,1.75s0.52,1.51,0.53,2.44v8.31
				c0,0.57,0.05,1.15,0.15,1.73c0.1,0.58,0.22,1.14,0.37,1.67l0.02,0.19H185.09z M178.82,91.82c0.67,0.01,1.3-0.07,1.91-0.24
				c0.61-0.17,1.17-0.4,1.67-0.71c0.51-0.3,0.96-0.66,1.35-1.08c0.39-0.42,0.7-0.87,0.92-1.37v-3.76h-3.46
				c-0.84,0-1.64,0.06-2.41,0.19c-0.77,0.13-1.45,0.34-2.05,0.63c-0.59,0.29-1.07,0.68-1.42,1.17c-0.35,0.49-0.53,1.09-0.53,1.82
				c0,0.52,0.11,0.98,0.32,1.4c0.21,0.41,0.5,0.76,0.86,1.06c0.36,0.29,0.78,0.51,1.27,0.67C177.74,91.74,178.26,91.82,178.82,91.82
				z"/>
			<path class="st0" d="M199.11,71.62v4.39h6.36v1.55h-6.36v10.8c0.01,0.67,0.11,1.22,0.31,1.66c0.2,0.44,0.46,0.79,0.79,1.06
				c0.33,0.27,0.72,0.46,1.17,0.58c0.45,0.12,0.94,0.17,1.47,0.17c0.53,0,1.07-0.04,1.63-0.11c0.56-0.07,1.03-0.15,1.42-0.22
				l0.29,1.44c-0.45,0.18-1.01,0.31-1.67,0.4c-0.66,0.09-1.32,0.13-2,0.13c-0.76,0-1.46-0.09-2.11-0.28
				c-0.65-0.18-1.21-0.48-1.68-0.89c-0.48-0.41-0.85-0.94-1.13-1.59c-0.27-0.65-0.42-1.45-0.43-2.39V77.57h-4.78v-1.55h4.78v-4.39
				H199.11z"/>
			<path class="st0" d="M224.08,93.18c-0.12-0.35-0.21-0.74-0.27-1.17c-0.06-0.43-0.11-0.86-0.13-1.31
				c-0.33,0.4-0.71,0.77-1.14,1.11c-0.43,0.34-0.91,0.63-1.42,0.88c-0.51,0.25-1.07,0.44-1.66,0.59c-0.59,0.14-1.21,0.21-1.86,0.21
				c-0.8,0-1.55-0.12-2.24-0.35c-0.69-0.23-1.3-0.56-1.81-0.98c-0.51-0.42-0.91-0.93-1.21-1.53c-0.29-0.6-0.44-1.27-0.44-2.01
				c0-0.98,0.22-1.82,0.65-2.51c0.43-0.69,1.02-1.25,1.76-1.67c0.74-0.43,1.6-0.74,2.57-0.94c0.97-0.2,1.99-0.3,3.06-0.3h3.71v-1.95
				c-0.01-0.65-0.14-1.21-0.38-1.71c-0.24-0.49-0.57-0.9-0.99-1.24c-0.42-0.33-0.91-0.58-1.49-0.75c-0.58-0.17-1.2-0.25-1.88-0.25
				c-0.61,0-1.2,0.08-1.75,0.24c-0.56,0.16-1.05,0.39-1.48,0.68c-0.43,0.3-0.77,0.66-1.04,1.09c-0.26,0.43-0.41,0.91-0.43,1.45
				l-1.9-0.02c0.03-0.73,0.22-1.4,0.58-2.01s0.83-1.14,1.44-1.59c0.6-0.45,1.3-0.8,2.1-1.06c0.8-0.25,1.65-0.38,2.56-0.38
				c0.91,0,1.76,0.12,2.56,0.35c0.8,0.23,1.49,0.58,2.08,1.05c0.59,0.47,1.05,1.05,1.4,1.75s0.52,1.51,0.53,2.44v8.31
				c0,0.57,0.05,1.15,0.15,1.73c0.1,0.58,0.22,1.14,0.37,1.67l0.02,0.19H224.08z M217.81,91.82c0.67,0.01,1.3-0.07,1.91-0.24
				c0.61-0.17,1.17-0.4,1.67-0.71c0.51-0.3,0.96-0.66,1.35-1.08c0.39-0.42,0.7-0.87,0.92-1.37v-3.76h-3.46
				c-0.84,0-1.64,0.06-2.41,0.19c-0.77,0.13-1.45,0.34-2.05,0.63c-0.59,0.29-1.07,0.68-1.42,1.17c-0.35,0.49-0.53,1.09-0.53,1.82
				c0,0.52,0.1,0.98,0.32,1.4c0.21,0.41,0.5,0.76,0.86,1.06c0.36,0.29,0.78,0.51,1.27,0.67C216.73,91.74,217.25,91.82,217.81,91.82z
				"/>
			<path class="st0" d="M231.23,84.44c0-1.14,0.14-2.24,0.41-3.29c0.27-1.05,0.7-1.98,1.26-2.79c0.57-0.81,1.27-1.45,2.13-1.94
				c0.85-0.48,1.86-0.72,3.02-0.72c1.1,0,2.09,0.24,2.96,0.71c0.87,0.47,1.6,1.13,2.18,1.99l0.08-2.38h1.78v16.86
				c-0.01,1.05-0.17,2.01-0.49,2.89c-0.32,0.88-0.77,1.63-1.37,2.26c-0.6,0.63-1.32,1.12-2.17,1.47c-0.85,0.35-1.8,0.52-2.86,0.52
				c-0.51,0-1.04-0.06-1.59-0.17s-1.09-0.3-1.62-0.54c-0.53-0.24-1.03-0.55-1.51-0.91c-0.48-0.37-0.9-0.8-1.26-1.31l1.06-1.14
				c1.36,1.65,2.96,2.47,4.79,2.47c0.81,0,1.54-0.13,2.17-0.4c0.63-0.26,1.17-0.64,1.59-1.12c0.43-0.48,0.76-1.06,0.98-1.73
				c0.23-0.67,0.35-1.41,0.36-2.21v-1.95c-0.6,0.8-1.34,1.42-2.21,1.85c-0.87,0.43-1.84,0.64-2.91,0.64c-1.14,0-2.14-0.25-2.99-0.74
				c-0.85-0.49-1.56-1.14-2.12-1.95c-0.56-0.81-0.98-1.74-1.26-2.79c-0.28-1.05-0.42-2.13-0.42-3.24V84.44z M233.14,84.77
				c0,0.86,0.09,1.71,0.28,2.55c0.19,0.85,0.48,1.6,0.9,2.28c0.41,0.67,0.95,1.21,1.62,1.63c0.67,0.41,1.48,0.62,2.44,0.62
				c0.54,0,1.05-0.07,1.54-0.21c0.49-0.14,0.93-0.35,1.34-0.61c0.41-0.26,0.77-0.58,1.09-0.96c0.32-0.38,0.59-0.8,0.8-1.26v-8.17
				c-0.21-0.48-0.47-0.91-0.78-1.32c-0.31-0.4-0.66-0.75-1.06-1.04c-0.4-0.29-0.85-0.52-1.33-0.68c-0.49-0.16-1.01-0.25-1.57-0.25
				c-0.97,0-1.79,0.21-2.46,0.63c-0.67,0.42-1.21,0.96-1.63,1.63c-0.42,0.67-0.72,1.43-0.9,2.28c-0.18,0.85-0.28,1.7-0.28,2.55
				V84.77z"/>
			<path class="st0" d="M250.28,84.35c0.01-1.16,0.19-2.27,0.54-3.32c0.35-1.05,0.85-1.96,1.5-2.75c0.65-0.79,1.45-1.41,2.4-1.88
				c0.95-0.47,2.02-0.7,3.21-0.7c1.21,0,2.28,0.23,3.23,0.7c0.95,0.47,1.75,1.09,2.4,1.88c0.66,0.79,1.16,1.71,1.51,2.75
				c0.35,1.05,0.53,2.15,0.54,3.32v0.52c-0.01,1.16-0.19,2.27-0.53,3.32c-0.34,1.05-0.84,1.96-1.5,2.75
				c-0.66,0.79-1.45,1.41-2.4,1.87c-0.94,0.46-2.01,0.69-3.22,0.69c-1.21,0-2.28-0.23-3.23-0.69c-0.95-0.46-1.75-1.08-2.4-1.87
				c-0.66-0.79-1.16-1.71-1.51-2.75c-0.35-1.05-0.53-2.15-0.54-3.32V84.35z M252.19,84.87c0,0.91,0.13,1.79,0.38,2.63
				c0.25,0.85,0.62,1.59,1.11,2.24c0.49,0.65,1.09,1.17,1.8,1.56c0.71,0.39,1.54,0.59,2.48,0.59c0.93,0,1.75-0.2,2.47-0.59
				c0.71-0.39,1.31-0.91,1.79-1.56c0.48-0.65,0.85-1.4,1.1-2.24c0.25-0.85,0.38-1.72,0.38-2.63v-0.52c0-0.9-0.13-1.77-0.38-2.62
				c-0.25-0.85-0.62-1.59-1.11-2.24c-0.49-0.65-1.09-1.17-1.81-1.57c-0.72-0.4-1.54-0.59-2.47-0.59c-0.93,0-1.75,0.2-2.47,0.59
				c-0.71,0.4-1.31,0.92-1.79,1.57c-0.48,0.65-0.85,1.4-1.1,2.24c-0.25,0.85-0.38,1.72-0.38,2.62V84.87z"/>
			<path class="st0" d="M272.51,76.02l0.14,3.22c0.6-1.07,1.41-1.92,2.41-2.56c1-0.64,2.15-0.96,3.43-0.98
				c1.88,0,3.32,0.56,4.32,1.69c0.99,1.13,1.5,2.73,1.51,4.8v10.99h-1.9V82.22c-0.01-1.58-0.37-2.78-1.08-3.63
				c-0.71-0.84-1.81-1.26-3.3-1.25c-0.61,0-1.2,0.1-1.75,0.3c-0.56,0.2-1.06,0.48-1.52,0.82s-0.87,0.76-1.22,1.24
				c-0.35,0.48-0.64,0.99-0.86,1.55v11.91h-1.9V76.02H272.51z"/>
			<path class="st0" d="M290.71,76.02h7.96V91.5h5.84v1.68h-13.8V91.5h6.06V77.71h-6.06V76.02z M296.21,71.32
				c0-0.39,0.11-0.73,0.33-1.02c0.22-0.29,0.59-0.43,1.11-0.43c0.51,0,0.88,0.14,1.1,0.43c0.23,0.29,0.34,0.62,0.34,1.02
				c0,0.37-0.11,0.7-0.34,0.98c-0.23,0.28-0.6,0.42-1.1,0.42c-0.52,0-0.89-0.14-1.11-0.42C296.32,72.02,296.21,71.69,296.21,71.32z"
				/>
			<path class="st0" d="M316.72,91.9c0.63,0,1.24-0.09,1.82-0.28c0.58-0.18,1.09-0.45,1.53-0.8c0.44-0.35,0.81-0.77,1.09-1.26
				c0.28-0.49,0.44-1.05,0.48-1.67h1.82c-0.04,0.81-0.25,1.56-0.63,2.25c-0.38,0.69-0.88,1.28-1.49,1.78
				c-0.61,0.5-1.32,0.89-2.11,1.17c-0.79,0.28-1.63,0.42-2.51,0.42c-1.26,0-2.35-0.24-3.28-0.71c-0.93-0.48-1.71-1.11-2.32-1.9
				c-0.62-0.79-1.08-1.71-1.4-2.74c-0.31-1.03-0.47-2.1-0.47-3.21v-0.67c0-1.11,0.16-2.18,0.47-3.21c0.31-1.03,0.78-1.94,1.4-2.74
				s1.39-1.43,2.32-1.9c0.93-0.48,2.02-0.71,3.27-0.71c0.95,0,1.83,0.15,2.64,0.45c0.81,0.3,1.51,0.72,2.11,1.27
				c0.6,0.54,1.07,1.19,1.42,1.94c0.35,0.75,0.54,1.56,0.59,2.45h-1.82c-0.03-0.64-0.18-1.24-0.44-1.79
				c-0.26-0.55-0.61-1.03-1.05-1.43c-0.43-0.4-0.94-0.71-1.53-0.94c-0.59-0.22-1.22-0.33-1.91-0.33c-0.99,0-1.84,0.2-2.55,0.6
				c-0.7,0.4-1.28,0.93-1.72,1.59c-0.44,0.66-0.77,1.4-0.98,2.23c-0.21,0.83-0.31,1.67-0.31,2.53v0.67c0,0.87,0.1,1.72,0.31,2.55
				c0.21,0.84,0.53,1.58,0.98,2.23c0.44,0.65,1.02,1.18,1.72,1.58C314.86,91.7,315.72,91.9,316.72,91.9z"/>
			<path class="st0" d="M350.65,79.33c0.6-1.1,1.41-1.98,2.41-2.63c1-0.66,2.15-0.99,3.44-1c0.94,0,1.77,0.15,2.5,0.44
				s1.33,0.71,1.82,1.27c0.49,0.56,0.87,1.24,1.13,2.05c0.26,0.81,0.39,1.73,0.39,2.77v10.96h-1.9V82.22c0-0.76-0.09-1.44-0.27-2.05
				c-0.18-0.6-0.45-1.11-0.82-1.53c-0.36-0.42-0.82-0.74-1.37-0.96s-1.2-0.33-1.94-0.33c-0.6,0-1.18,0.09-1.73,0.29
				c-0.55,0.19-1.06,0.45-1.52,0.79c-0.47,0.34-0.88,0.74-1.25,1.2c-0.37,0.46-0.66,0.97-0.9,1.52v12.04h-1.9V68.81h1.9V79.33z"/>
			<path class="st0" d="M379.76,90.5c-0.57,0.94-1.32,1.68-2.26,2.2c-0.94,0.53-2.04,0.79-3.32,0.79c-0.95,0-1.79-0.15-2.51-0.46
				c-0.72-0.31-1.33-0.76-1.82-1.35c-0.49-0.59-0.87-1.32-1.13-2.17c-0.26-0.86-0.39-1.83-0.39-2.93V76.02h1.89v10.6
				c0.02,1.72,0.37,3.03,1.05,3.92c0.68,0.89,1.72,1.33,3.14,1.33c1.43,0,2.59-0.33,3.47-0.98c0.89-0.66,1.51-1.54,1.86-2.66
				l-0.02-12.2h1.92v17.16h-1.78L379.76,90.5z"/>
			<path class="st0" d="M401.69,84.77c0,1.11-0.13,2.19-0.4,3.24c-0.27,1.05-0.68,1.98-1.24,2.79c-0.56,0.81-1.26,1.46-2.1,1.95
				c-0.85,0.49-1.85,0.74-3.01,0.74c-1.1,0-2.1-0.22-2.99-0.67c-0.89-0.45-1.64-1.1-2.24-1.94l-0.08,2.3h-1.78V68.81h1.9v9.6
				c0.58-0.86,1.31-1.52,2.18-2c0.87-0.48,1.86-0.71,2.97-0.71c1.17,0,2.19,0.24,3.05,0.72c0.86,0.48,1.56,1.13,2.11,1.94
				c0.55,0.81,0.96,1.74,1.23,2.79c0.27,1.05,0.4,2.15,0.4,3.29V84.77z M399.77,84.44c0-0.86-0.09-1.71-0.27-2.55
				c-0.18-0.85-0.47-1.6-0.87-2.28c-0.4-0.67-0.94-1.22-1.61-1.63c-0.67-0.42-1.5-0.63-2.48-0.63c-0.57,0-1.11,0.08-1.6,0.25
				c-0.5,0.17-0.95,0.4-1.36,0.7c-0.41,0.3-0.76,0.65-1.07,1.07c-0.31,0.42-0.56,0.87-0.76,1.36v8.01c0.21,0.47,0.48,0.89,0.8,1.28
				c0.32,0.39,0.69,0.71,1.11,0.98s0.87,0.48,1.36,0.63c0.49,0.15,1.01,0.22,1.55,0.22c0.96,0,1.77-0.21,2.43-0.62
				c0.66-0.41,1.19-0.95,1.6-1.63c0.41-0.67,0.7-1.43,0.89-2.28c0.18-0.85,0.28-1.7,0.28-2.55V84.44z"/>
		</g>
	</g>
</g>
</svg>
