<svg id="Layer_1" data-name="Layer 1" xmlns="http://www.w3.org/2000/svg" viewBox="0 0 1051.22 557.12"><defs><style>.cls-1{fill:#fff;}</style></defs><path class="cls-1" d="M975.05,477.57c12.45,0,24-1.84,35-3.68,11.52-1.38,22.12-3.23,33.18-3.23,25.81,0,39.63,11.06,40.09,36.87v7.83h25.35v-9.67c0-37.79-16.59-66.83-63.14-66.83-12.44,0-25.34,1.85-37.79,3.69s-24.88,3.69-37.33,3.69a45.07,45.07,0,0,1-33.94-15.51c-3.88-4.43,56.79-55.48,56.79-55.48s29.67,31.39,45.49,47.21,37-6.09,22-21.16S923.88,261.44,923.88,261.44,801.79,383.33,784.34,400.78s3.71,39.39,20.91,22.19,50.65-47.72,50.65-47.72,57.31,51.28,53.11,55.48c-11,11-18.69,15.51-30.28,15.51-12.9,0-25.8-1.85-38.71-3.69s-25.35-3.69-38.25-3.69c-42.4,0-60.37,28.12-60.37,67.29v9.21h25.35v-8.29c.46-26.73,14.74-36.41,39.63-36.41,10.6,0,21.66,1.85,32.72,3.23,11.52,1.84,22.58,3.68,35,3.68,14.61,0,32.8-11.39,51-11.39C942.9,466.18,960.68,477.57,975.05,477.57ZM875.74,352l46.85-50,47.2,49L923,401Z" transform="translate(-434.39 -261.44)"/><path class="cls-1" d="M461,685.19a48.7,48.7,0,0,1-19.6-18A49.68,49.68,0,0,1,461,596.72a60.67,60.67,0,0,1,28.3-6.5q15.57,0,27.2,6.5a38.61,38.61,0,0,1,17,18.59l-22.17,11.91q-7.69-13.56-22.16-13.56-11.18,0-18.5,7.33t-7.33,20q0,12.63,7.33,20t18.5,7.33q14.65,0,22.16-13.56l22.17,12.09a39.37,39.37,0,0,1-17,18.32q-11.62,6.6-27.2,6.59A60.55,60.55,0,0,1,461,685.19Z" transform="translate(-434.39 -261.44)"/><path class="cls-1" d="M567.65,685.19a48.35,48.35,0,0,1-19.33-18,52.77,52.77,0,0,1,0-52.39,48.42,48.42,0,0,1,19.33-18,63.06,63.06,0,0,1,55.77,0,48.57,48.57,0,0,1,19.24,18,52.77,52.77,0,0,1,0,52.39,48.5,48.5,0,0,1-19.24,18,63.06,63.06,0,0,1-55.77,0Zm46-24.36q7.05-7.43,7.06-19.87t-7.06-19.88q-7.05-7.41-18-7.42a24.11,24.11,0,0,0-18.13,7.42q-7.14,7.42-7.15,19.88t7.15,19.87q7.14,7.42,18.13,7.42T613.62,660.83Z" transform="translate(-434.39 -261.44)"/><path class="cls-1" d="M769.05,554.32V690.23h-27.3V678.87Q731.13,691.7,711,691.69a51.23,51.23,0,0,1-25.19-6.22,44.63,44.63,0,0,1-17.67-17.77q-6.42-11.54-6.41-26.74t6.41-26.75a44.6,44.6,0,0,1,17.67-17.76A51.24,51.24,0,0,1,711,590.22q18.87,0,29.49,11.9v-47.8ZM733.88,660.83Q741,653.41,741,641t-7.14-19.88a25.65,25.65,0,0,0-36.09,0q-7.14,7.42-7.14,19.88t7.14,19.87q7.14,7.42,18.14,7.42A23.88,23.88,0,0,0,733.88,660.83Z" transform="translate(-434.39 -261.44)"/><path class="cls-1" d="M891.4,649H816.85a23.21,23.21,0,0,0,9.53,14.47q7.5,5.31,18.68,5.31a37.78,37.78,0,0,0,13.65-2.29,33.17,33.17,0,0,0,11.08-7.24L885,675.76q-13.92,15.93-40.66,15.93-16.68,0-29.49-6.5a47.66,47.66,0,0,1-19.79-18,49.69,49.69,0,0,1-7-26.19A50.39,50.39,0,0,1,795,614.85a48.18,48.18,0,0,1,18.87-18.13,58.42,58.42,0,0,1,53-.27,45.5,45.5,0,0,1,18.41,17.85q6.68,11.64,6.68,27C892,641.69,891.77,644.25,891.4,649Zm-66.86-31.69q-6.59,5.49-8.06,15H865A23.68,23.68,0,0,0,857,617.42a24.07,24.07,0,0,0-16.12-5.59Q831.13,611.83,824.54,617.33Z" transform="translate(-434.39 -261.44)"/><path class="cls-1" d="M952.12,593.88a51.39,51.39,0,0,1,20.06-3.66v26.37q-4.75-.36-6.41-.36-12.27,0-19.23,6.87t-7,20.6v46.53H911V591.68h27.29v13A31.86,31.86,0,0,1,952.12,593.88Z" transform="translate(-434.39 -261.44)"/><path class="cls-1" d="M998.28,687.76q-10.71-3.39-16.76-8.52L987.38,669a49.36,49.36,0,0,0,15.21,7.79,60.48,60.48,0,0,0,19,3q13.19,0,19.5-4.12a13.12,13.12,0,0,0,6.33-11.63,10.49,10.49,0,0,0-3.49-8.34,23.21,23.21,0,0,0-8.79-4.58,127.92,127.92,0,0,0-14.1-3,161.57,161.57,0,0,1-18.87-4.49A27.71,27.71,0,0,1,990,635.83q-5-5.51-5-15.21,0-12.09,10.08-19.78t28-7.69a72.73,72.73,0,0,1,18.69,2.47,51.55,51.55,0,0,1,15.38,6.5l-5.67,10.44q-11.93-8.23-28.4-8.24-12.45,0-18.77,4.4T998,620.26a11.4,11.4,0,0,0,3.57,8.79,21.83,21.83,0,0,0,8.88,4.85,142.85,142.85,0,0,0,14.66,3.21,166.31,166.31,0,0,1,18.5,4.4,27.08,27.08,0,0,1,11.9,7.51q4.95,5.31,5,14.65,0,12.65-10.53,20.06t-29.22,7.42A74,74,0,0,1,998.28,687.76Z" transform="translate(-434.39 -261.44)"/><path class="cls-1" d="M1098.75,684.83a46.1,46.1,0,0,1-17.58-17.5,53,53,0,0,1,0-50.55,45.36,45.36,0,0,1,17.58-17.4,53.66,53.66,0,0,1,50.19,0,44.74,44.74,0,0,1,17.49,17.4,53.7,53.7,0,0,1,0,50.55,45.46,45.46,0,0,1-17.49,17.5,53,53,0,0,1-50.19,0Zm43.51-9.9A32.55,32.55,0,0,0,1155,661.65a44.21,44.21,0,0,0,0-39.19,32.61,32.61,0,0,0-12.73-13.28,38.62,38.62,0,0,0-36.82,0,33.07,33.07,0,0,0-12.82,13.28,43.44,43.44,0,0,0,0,39.19,33,33,0,0,0,12.82,13.28,38.55,38.55,0,0,0,36.82,0Z" transform="translate(-434.39 -261.44)"/><path class="cls-1" d="M1286.14,593.88v96.35h-12.46V672.65a35.64,35.64,0,0,1-14.1,13.64,42.44,42.44,0,0,1-20.52,4.86q-18.87,0-29.76-10.54t-10.9-30.86V593.88h13v54.59q0,15.19,7.51,23.08t21.43,7.87q15.21,0,24-9.25t8.79-25.73V593.88Z" transform="translate(-434.39 -261.44)"/><path class="cls-1" d="M1373.33,684.37a24.7,24.7,0,0,1-9.07,5,36.83,36.83,0,0,1-11.27,1.74q-13.54,0-20.88-7.33t-7.32-20.7V604.87h-17.22v-11h17.22V572.82h13v21.06h29.31v11h-29.31v57.52q0,8.61,4.31,13.09c2.86,3,7,4.49,12.36,4.49a23.73,23.73,0,0,0,7.78-1.28,19.18,19.18,0,0,0,6.51-3.66Z" transform="translate(-434.39 -261.44)"/><path class="cls-1" d="M1474.89,603.68q10.72,10.53,10.72,30.68v55.87h-13V635.64q0-15-7.51-22.89t-21.43-7.88q-15.57,0-24.63,9.25T1410,639.67v50.56h-13V554.32h13v56.41a35.25,35.25,0,0,1,14.65-13,48.13,48.13,0,0,1,21.43-4.58Q1464.18,593.15,1474.89,603.68Z" transform="translate(-434.39 -261.44)"/><path class="cls-1" d="M686.7,779.82a33.27,33.27,0,0,1-1,8.24,22.27,22.27,0,0,1-3.15,7.1,16.45,16.45,0,0,1-5.34,5,15,15,0,0,1-7.66,1.87,17.5,17.5,0,0,1-7.46-1.57,15.23,15.23,0,0,1-5.68-4.55V818h-4.84V757.57h4.52l.2,6a16.2,16.2,0,0,1,5.64-5,15.78,15.78,0,0,1,7.54-1.78,15.14,15.14,0,0,1,13.1,6.75,22.56,22.56,0,0,1,3.13,7.1,33.77,33.77,0,0,1,1,8.36Zm-4.83-.85a29.6,29.6,0,0,0-.73-6.48,18.15,18.15,0,0,0-2.34-5.79,12.82,12.82,0,0,0-4.17-4.15,11.68,11.68,0,0,0-6.27-1.59,12.84,12.84,0,0,0-3.93.58,12.11,12.11,0,0,0-3.34,1.65,13.53,13.53,0,0,0-2.7,2.54,14.94,14.94,0,0,0-2,3.25v21.6a13.16,13.16,0,0,0,4.84,5.37,13.31,13.31,0,0,0,7.21,2,11.5,11.5,0,0,0,6.23-1.61,13,13,0,0,0,4.15-4.17,18.52,18.52,0,0,0,2.32-5.81,29.94,29.94,0,0,0,.73-6.51Z" transform="translate(-434.39 -261.44)"/><path class="cls-1" d="M731,801.19a18.06,18.06,0,0,1-.68-3,32.74,32.74,0,0,1-.32-3.32,18.13,18.13,0,0,1-2.91,2.82,20,20,0,0,1-3.6,2.24,20.84,20.84,0,0,1-4.22,1.49,20.12,20.12,0,0,1-4.71.54,17.89,17.89,0,0,1-5.71-.88,14.5,14.5,0,0,1-4.59-2.5,11.26,11.26,0,0,1-4.17-9,11.73,11.73,0,0,1,1.65-6.37,12.59,12.59,0,0,1,4.47-4.25,21.78,21.78,0,0,1,6.53-2.4,38.52,38.52,0,0,1,7.78-.77h9.44v-5a10,10,0,0,0-1-4.33,9.25,9.25,0,0,0-2.52-3.15,11.09,11.09,0,0,0-3.79-1.91,16.89,16.89,0,0,0-4.78-.65,16.27,16.27,0,0,0-4.45.61,12.66,12.66,0,0,0-3.75,1.73,9.36,9.36,0,0,0-2.64,2.76,7.55,7.55,0,0,0-1.09,3.69l-4.84,0a11.07,11.07,0,0,1,1.48-5.12,13.33,13.33,0,0,1,3.64-4.05,18.26,18.26,0,0,1,5.35-2.68,21.44,21.44,0,0,1,6.51-1,23.22,23.22,0,0,1,6.51.89,15.45,15.45,0,0,1,5.28,2.66,12.73,12.73,0,0,1,3.54,4.43,14.12,14.12,0,0,1,1.35,6.21v21.13a25.31,25.31,0,0,0,.39,4.39,42.44,42.44,0,0,0,.94,4.23l0,.49ZM715,797.72a16.92,16.92,0,0,0,4.86-.61,17.18,17.18,0,0,0,4.25-1.79,15.54,15.54,0,0,0,3.43-2.74,12.72,12.72,0,0,0,2.34-3.49v-9.55h-8.79A38.07,38.07,0,0,0,715,780a18.55,18.55,0,0,0-5.2,1.6,9.52,9.52,0,0,0-3.61,3,8.43,8.43,0,0,0-.54,8.18,8.2,8.2,0,0,0,2.18,2.68,9.51,9.51,0,0,0,3.22,1.69A13.23,13.23,0,0,0,715,797.72Z" transform="translate(-434.39 -261.44)"/><path class="cls-1" d="M766.6,746.4v11.17h16.17v3.95H766.6V789a10.78,10.78,0,0,0,.79,4.21,7,7,0,0,0,2,2.7,7.8,7.8,0,0,0,3,1.48,15.2,15.2,0,0,0,3.73.44,31,31,0,0,0,4.14-.28q2.12-.28,3.6-.57l.73,3.67a18.45,18.45,0,0,1-4.23,1,37.15,37.15,0,0,1-5.08.34,19.37,19.37,0,0,1-5.36-.7,11.35,11.35,0,0,1-4.28-2.26,10.72,10.72,0,0,1-2.86-4,16.1,16.1,0,0,1-1.09-6.07V761.52H749.55v-3.95h12.13V746.4Z" transform="translate(-434.39 -261.44)"/><path class="cls-1" d="M830.05,801.19a17.07,17.07,0,0,1-.69-3c-.16-1.09-.26-2.19-.32-3.32a18.06,18.06,0,0,1-2.9,2.82,20.05,20.05,0,0,1-3.61,2.24,20.75,20.75,0,0,1-4.21,1.49,20.27,20.27,0,0,1-4.72.54,17.82,17.82,0,0,1-5.7-.88,14.66,14.66,0,0,1-4.6-2.5,11.7,11.7,0,0,1-3.06-3.89,11.5,11.5,0,0,1-1.11-5.1,11.73,11.73,0,0,1,1.65-6.37,12.62,12.62,0,0,1,4.48-4.25,21.68,21.68,0,0,1,6.53-2.4,38.37,38.37,0,0,1,7.78-.77H829v-5a10,10,0,0,0-1-4.33,9.13,9.13,0,0,0-2.52-3.15,11,11,0,0,0-3.78-1.91,16.94,16.94,0,0,0-4.78-.65,16.34,16.34,0,0,0-4.46.61,12.66,12.66,0,0,0-3.75,1.73,9.46,9.46,0,0,0-2.63,2.76,7.35,7.35,0,0,0-1.09,3.69l-4.84,0a11.06,11.06,0,0,1,1.47-5.12,13.36,13.36,0,0,1,3.65-4.05,18.08,18.08,0,0,1,5.34-2.68,21.53,21.53,0,0,1,6.51-1,23.22,23.22,0,0,1,6.51.89,15.27,15.27,0,0,1,5.28,2.66,12.76,12.76,0,0,1,3.55,4.43,14.41,14.41,0,0,1,1.35,6.21v21.13a26.3,26.3,0,0,0,.38,4.39,42.41,42.41,0,0,0,.95,4.23l0,.49Zm-15.92-3.47a16.85,16.85,0,0,0,4.85-.61,17.26,17.26,0,0,0,4.26-1.79,15.26,15.26,0,0,0,3.42-2.74,12.29,12.29,0,0,0,2.34-3.49v-9.55h-8.79a37.94,37.94,0,0,0-6.12.48,18.35,18.35,0,0,0-5.2,1.6,9.44,9.44,0,0,0-3.61,3,7.65,7.65,0,0,0-1.35,4.63,7.76,7.76,0,0,0,.8,3.55,8.33,8.33,0,0,0,2.18,2.68,9.47,9.47,0,0,0,3.23,1.69A13.13,13.13,0,0,0,814.13,797.72Z" transform="translate(-434.39 -261.44)"/><path class="cls-1" d="M848.23,779a32.85,32.85,0,0,1,1-8.36,22,22,0,0,1,3.2-7.1,16.37,16.37,0,0,1,5.4-4.91,15.78,15.78,0,0,1,20.74,5l.21-6h4.51v42.85a22.11,22.11,0,0,1-1.25,7.34,16.13,16.13,0,0,1-3.49,5.74,15.72,15.72,0,0,1-5.5,3.73,18.81,18.81,0,0,1-7.25,1.33,20,20,0,0,1-4-.44,20.45,20.45,0,0,1-4.11-1.37,21.52,21.52,0,0,1-3.85-2.32,15.12,15.12,0,0,1-3.2-3.33l2.7-2.9q5.21,6.28,12.17,6.29a14.35,14.35,0,0,0,5.53-1,11,11,0,0,0,4.05-2.84,12.57,12.57,0,0,0,2.5-4.4,18.18,18.18,0,0,0,.9-5.62v-5a15.39,15.39,0,0,1-5.62,4.7,16.54,16.54,0,0,1-7.4,1.63,15,15,0,0,1-7.6-1.87,16.68,16.68,0,0,1-5.38-5,22.57,22.57,0,0,1-3.2-7.1,32,32,0,0,1-1.07-8.24Zm4.84.85a30.28,30.28,0,0,0,.7,6.49,18.54,18.54,0,0,0,2.28,5.79,12.58,12.58,0,0,0,4.11,4.13,11.57,11.57,0,0,0,6.21,1.57,13.94,13.94,0,0,0,3.91-.54,12.91,12.91,0,0,0,3.41-1.56,13.09,13.09,0,0,0,2.78-2.43,13.32,13.32,0,0,0,2-3.21V769.3a16.47,16.47,0,0,0-2-3.35,13,13,0,0,0-2.7-2.64,12.61,12.61,0,0,0-3.39-1.73,12.36,12.36,0,0,0-4-.62,11.58,11.58,0,0,0-6.25,1.59,12.79,12.79,0,0,0-4.13,4.15,18.33,18.33,0,0,0-2.3,5.79,30.18,30.18,0,0,0-.7,6.48Z" transform="translate(-434.39 -261.44)"/><path class="cls-1" d="M896.64,778.73a27.55,27.55,0,0,1,1.37-8.42,21.82,21.82,0,0,1,3.81-7,18.64,18.64,0,0,1,28.56,0,21.3,21.3,0,0,1,3.83,7,27,27,0,0,1,1.37,8.42v1.33a27.26,27.26,0,0,1-1.35,8.43,20.93,20.93,0,0,1-3.81,7A17.89,17.89,0,0,1,916.15,802a18.53,18.53,0,0,1-8.2-1.75,18.33,18.33,0,0,1-6.11-4.76,21.52,21.52,0,0,1-3.83-7,27.57,27.57,0,0,1-1.37-8.43Zm4.84,1.33a23,23,0,0,0,1,6.69,17.83,17.83,0,0,0,2.82,5.71,14.17,14.17,0,0,0,4.57,4,13,13,0,0,0,6.31,1.49,12.86,12.86,0,0,0,6.27-1.49,13.83,13.83,0,0,0,4.56-4,18.22,18.22,0,0,0,2.8-5.71,23.33,23.33,0,0,0,1-6.69v-1.33a23.21,23.21,0,0,0-1-6.65,18.09,18.09,0,0,0-2.82-5.7,14.13,14.13,0,0,0-4.6-4,13.79,13.79,0,0,0-12.55,0,13.89,13.89,0,0,0-4.56,4,18.27,18.27,0,0,0-2.8,5.7,22.87,22.87,0,0,0-1,6.65Z" transform="translate(-434.39 -261.44)"/><path class="cls-1" d="M953.12,757.57l.36,8.18a18.34,18.34,0,0,1,6.13-6.51,16.18,16.18,0,0,1,8.71-2.48q7.17,0,11,4.3t3.83,12.19v27.94h-4.84V773.33c0-4-.94-7.07-2.74-9.21s-4.59-3.19-8.38-3.16a13,13,0,0,0-4.46.76,14.49,14.49,0,0,0-3.87,2.1,15.39,15.39,0,0,0-3.1,3.14,17.52,17.52,0,0,0-2.2,3.95v30.28h-4.83V757.57Z" transform="translate(-434.39 -261.44)"/><path class="cls-1" d="M999.36,757.57h20.23v39.34h14.84v4.28H999.36v-4.28h15.4v-35h-15.4Zm14-11.93a4.08,4.08,0,0,1,.85-2.58,4.17,4.17,0,0,1,5.62,0,4,4,0,0,1,.87,2.58,3.81,3.81,0,0,1-.87,2.48,4.25,4.25,0,0,1-5.62,0A3.9,3.9,0,0,1,1013.34,745.64Z" transform="translate(-434.39 -261.44)"/><path class="cls-1" d="M1065.47,797.92a14.68,14.68,0,0,0,4.61-.71,12,12,0,0,0,3.89-2,10.9,10.9,0,0,0,2.76-3.21,9.8,9.8,0,0,0,1.23-4.25h4.64a13.22,13.22,0,0,1-1.61,5.73,15.35,15.35,0,0,1-3.79,4.51,18,18,0,0,1-5.36,3,18.81,18.81,0,0,1-6.37,1.07,18.13,18.13,0,0,1-8.35-1.81,17.43,17.43,0,0,1-5.9-4.84,20.87,20.87,0,0,1-3.55-7,28.13,28.13,0,0,1-1.19-8.17v-1.69a28.11,28.11,0,0,1,1.19-8.16,21,21,0,0,1,3.55-7,17.52,17.52,0,0,1,5.9-4.83,18,18,0,0,1,8.31-1.82,19.26,19.26,0,0,1,6.71,1.15,16.37,16.37,0,0,1,5.36,3.23,15.44,15.44,0,0,1,3.61,4.91,16.62,16.62,0,0,1,1.49,6.23H1078a11.56,11.56,0,0,0-1.13-4.55,11.76,11.76,0,0,0-2.66-3.63,11.91,11.91,0,0,0-3.89-2.38,13.69,13.69,0,0,0-4.85-.84,12.45,12.45,0,0,0-10.85,5.56,17.56,17.56,0,0,0-2.48,5.66,26.75,26.75,0,0,0-.78,6.43v1.69a27.12,27.12,0,0,0,.78,6.49,17.33,17.33,0,0,0,2.48,5.67,13.08,13.08,0,0,0,4.38,4A12.9,12.9,0,0,0,1065.47,797.92Z" transform="translate(-434.39 -261.44)"/><path class="cls-1" d="M1151.69,766a18.47,18.47,0,0,1,6.13-6.69,16,16,0,0,1,8.75-2.54,16.93,16.93,0,0,1,6.35,1.11,12.14,12.14,0,0,1,4.63,3.23,14.13,14.13,0,0,1,2.86,5.2,23,23,0,0,1,1,7v27.86h-4.84V773.33a18.1,18.1,0,0,0-.68-5.2,10.31,10.31,0,0,0-2.08-3.89,9.1,9.1,0,0,0-3.48-2.44,13.2,13.2,0,0,0-4.92-.84,13.49,13.49,0,0,0-4.4.72,15.18,15.18,0,0,0-3.87,2,16.45,16.45,0,0,0-5.44,6.89v30.6h-4.83V739.27h4.83Z" transform="translate(-434.39 -261.44)"/><path class="cls-1" d="M1225.66,794.37a15.59,15.59,0,0,1-5.74,5.61,17,17,0,0,1-8.45,2,16.26,16.26,0,0,1-6.39-1.17,12.05,12.05,0,0,1-4.63-3.42,15.5,15.5,0,0,1-2.86-5.53,25.65,25.65,0,0,1-1-7.45V757.57h4.8V784.5q.07,6.57,2.66,10c1.71,2.26,4.38,3.39,8,3.39a14.48,14.48,0,0,0,8.83-2.5,13,13,0,0,0,4.71-6.77l0-31h4.88v43.62h-4.52Z" transform="translate(-434.39 -261.44)"/><path class="cls-1" d="M1281.37,779.82a33.27,33.27,0,0,1-1,8.24,22.27,22.27,0,0,1-3.15,7.1,16.45,16.45,0,0,1-5.34,5,15,15,0,0,1-7.66,1.87,16.71,16.71,0,0,1-7.6-1.71,15.43,15.43,0,0,1-5.7-4.94l-.2,5.85h-4.52V739.27H1251v24.39a15.81,15.81,0,0,1,5.54-5.08,15.74,15.74,0,0,1,20.66,4.93,22.56,22.56,0,0,1,3.13,7.1,33.77,33.77,0,0,1,1,8.36Zm-4.87-.85a30.82,30.82,0,0,0-.69-6.48,19,19,0,0,0-2.22-5.79,12.12,12.12,0,0,0-4.09-4.15,11.73,11.73,0,0,0-6.31-1.59,12.53,12.53,0,0,0-4.07.64,13.08,13.08,0,0,0-3.45,1.77,12.58,12.58,0,0,0-2.72,2.73,16.33,16.33,0,0,0-1.93,3.44V789.9a14.25,14.25,0,0,0,2,3.24,12,12,0,0,0,2.83,2.5,13.48,13.48,0,0,0,3.46,1.6,13.78,13.78,0,0,0,3.93.56,11.45,11.45,0,0,0,6.19-1.57,12.36,12.36,0,0,0,4.07-4.13,18.75,18.75,0,0,0,2.26-5.79,30.29,30.29,0,0,0,.71-6.49Z" transform="translate(-434.39 -261.44)"/></svg>
